<svg width="57" height="57" viewBox="0 0 57 57" fill="none" xmlns="http://www.w3.org/2000/svg">
    <path
        d="M51.3625 28.5001C51.3625 41.1264 41.1269 51.362 28.5006 51.362C15.8743 51.362 5.63867 41.1264 5.63867 28.5001C5.63867 15.8738 15.8743 5.63818 28.5006 5.63818C41.1269 5.63818 51.3625 15.8738 51.3625 28.5001ZM10.7223 28.5001C10.7223 38.3188 18.6819 46.2784 28.5006 46.2784C38.3192 46.2784 46.2788 38.3188 46.2788 28.5001C46.2788 18.6814 38.3192 10.7218 28.5006 10.7218C18.6819 10.7218 10.7223 18.6814 10.7223 28.5001Z"
        fill="#777E91" fill-opacity="0.15" />
    <path
        d="M19.9332 46.9249C19.3412 48.1978 17.8202 48.7616 16.6208 48.0321C14.468 46.7228 12.5414 45.0633 10.9229 43.117C8.76129 40.5175 7.20309 37.471 6.36057 34.1969C5.51805 30.9227 5.41218 27.5025 6.05058 24.1825C6.68898 20.8625 8.05577 17.7254 10.0525 14.9972C12.0492 12.269 14.6262 10.0176 17.5977 8.40523C20.5692 6.79282 23.8614 5.85953 27.237 5.67259C30.6127 5.48564 33.9878 6.0497 37.1192 7.32413C39.4638 8.27834 41.6281 9.61301 43.5271 11.2691C44.5851 12.1917 44.5076 13.812 43.4733 14.7612C42.4389 15.7103 40.8409 15.6244 39.7541 14.7358C38.3841 13.6157 36.8507 12.7034 35.2028 12.0327C32.7677 11.0417 30.1432 10.6031 27.5181 10.7484C24.8931 10.8938 22.333 11.6196 20.0222 12.8735C17.7114 14.1273 15.7075 15.8781 14.1548 17.9996C12.6021 20.1212 11.5392 22.5607 11.0428 25.1424C10.5463 27.7242 10.6286 30.3839 11.2838 32.93C11.939 35.4761 13.1507 37.8452 14.8317 39.8666C15.9692 41.2346 17.3025 42.4203 18.7844 43.3875C19.96 44.1547 20.5251 45.652 19.9332 46.9249Z"
        fill="url(#paint0_linear_48_952)" />
    <defs>
        <linearGradient id="paint0_linear_48_952" x1="8.0229" y1="36.9818" x2="29.4772" y2="9.0023"
            gradientUnits="userSpaceOnUse">
            <stop stop-color="#3772FF" />
            <stop offset="1" stop-color="#3772FF" stop-opacity="0" />
        </linearGradient>
    </defs>
</svg>